REM DIRINDEX 1\3,1\4,1\5,1\6,1\2\7,1\2\8,1\2\9,1\10
REM DIRNAME folder01,folder02,folder03,folder04,folder05,folder06,folder07,folder08,folder09,folder10
TITLE ""
FILE "1-51 Level 3-433-441.mp3" MP3
  TRACK 01 AUDIO
    TITLE "0:"
    INDEX 01 00:00:00
  TRACK 02 AUDIO
    TITLE "7:cjc056_1499"
    INDEX 01 00:00:05
  TRACK 03 AUDIO
    TITLE "0:"
    INDEX 01 00:01:01
  TRACK 04 AUDIO
    TITLE "8:cjc056_1500"
    INDEX 01 00:01:15
  TRACK 05 AUDIO
    TITLE "0:"
    INDEX 01 00:03:45
  TRACK 06 AUDIO
    TITLE "9:cjc056_1501"
    INDEX 01 00:03:57
  TRACK 07 AUDIO
    TITLE "0:"
    INDEX 01 00:05:34
  TRACK 08 AUDIO
    TITLE "7:cjc056_1502"
    INDEX 01 00:06:02
  TRACK 09 AUDIO
    TITLE "0:"
    INDEX 01 00:07:17
  TRACK 10 AUDIO
    TITLE "8:cjc056_1503"
    INDEX 01 00:07:31
  TRACK 11 AUDIO
    TITLE "0:"
    INDEX 01 00:09:00
  TRACK 12 AUDIO
    TITLE "9:cjc056_1504"
    INDEX 01 00:09:06
  TRACK 13 AUDIO
    TITLE "0:"
    INDEX 01 00:10:61
  TRACK 14 AUDIO
    TITLE "7:cjc056_1505"
    INDEX 01 00:11:39
  TRACK 15 AUDIO
    TITLE "0:"
    INDEX 01 00:12:32
  TRACK 16 AUDIO
    TITLE "8:cjc056_1506"
    INDEX 01 00:12:46
  TRACK 17 AUDIO
    TITLE "0:"
    INDEX 01 00:14:02
  TRACK 18 AUDIO
    TITLE "9:cjc056_1507"
    INDEX 01 00:14:15
  TRACK 19 AUDIO
    TITLE "0:"
    INDEX 01 00:16:32
  TRACK 20 AUDIO
    TITLE "7:cjc056_1508"
    INDEX 01 00:17:02
  TRACK 21 AUDIO
    TITLE "0:"
    INDEX 01 00:18:07
  TRACK 22 AUDIO
    TITLE "8:cjc056_1509"
    INDEX 01 00:18:19
  TRACK 23 AUDIO
    TITLE "0:"
    INDEX 01 00:19:69
  TRACK 24 AUDIO
    TITLE "9:cjc056_1510"
    INDEX 01 00:20:08
  TRACK 25 AUDIO
    TITLE "0:"
    INDEX 01 00:22:21
  TRACK 26 AUDIO
    TITLE "8:cjc056_1511"
    INDEX 01 00:22:46
  TRACK 27 AUDIO
    TITLE "0:"
    INDEX 01 00:23:59
  TRACK 28 AUDIO
    TITLE "9:cjc056_1512"
    INDEX 01 00:23:71
  TRACK 29 AUDIO
    TITLE "0:"
    INDEX 01 00:25:45
  TRACK 30 AUDIO
    TITLE "7:cjc056_1513"
    INDEX 01 00:26:20
  TRACK 31 AUDIO
    TITLE "0:"
    INDEX 01 00:27:30
  TRACK 32 AUDIO
    TITLE "8:cjc056_1514"
    INDEX 01 00:27:43
  TRACK 33 AUDIO
    TITLE "0:"
    INDEX 01 00:29:03
  TRACK 34 AUDIO
    TITLE "9:cjc056_1515"
    INDEX 01 00:29:17
  TRACK 35 AUDIO
    TITLE "0:"
    INDEX 01 00:31:06
  TRACK 36 AUDIO
    TITLE "7:cjc056_1516"
    INDEX 01 00:31:57
  TRACK 37 AUDIO
    TITLE "0:"
    INDEX 01 00:32:66
  TRACK 38 AUDIO
    TITLE "8:cjc056_1517"
    INDEX 01 00:32:74
  TRACK 39 AUDIO
    TITLE "0:"
    INDEX 01 00:34:26
  TRACK 40 AUDIO
    TITLE "9:cjc056_1518"
    INDEX 01 00:34:42
  TRACK 41 AUDIO
    TITLE "0:"
    INDEX 01 00:35:70
  TRACK 42 AUDIO
    TITLE "8:cjc056_1519"
    INDEX 01 00:36:17
  TRACK 43 AUDIO
    TITLE "0:"
    INDEX 01 00:37:65
  TRACK 44 AUDIO
    TITLE "9:cjc056_1520"
    INDEX 01 00:38:06
  TRACK 45 AUDIO
    TITLE "0:"
    INDEX 01 00:39:39
  TRACK 46 AUDIO
    TITLE "7:cjc056_1521"
    INDEX 01 00:40:15
  TRACK 47 AUDIO
    TITLE "0:"
    INDEX 01 00:41:36
  TRACK 48 AUDIO
    TITLE "8:cjc056_1522"
    INDEX 01 00:41:49
  TRACK 49 AUDIO
    TITLE "0:"
    INDEX 01 00:43:07
  TRACK 50 AUDIO
    TITLE "9:cjc056_1523"
    INDEX 01 00:43:21
  TRACK 51 AUDIO
    TITLE "0:"
    INDEX 01 00:45:73
  TRACK 52 AUDIO
    TITLE "7:cjc056_1524"
    INDEX 01 00:46:49
  TRACK 53 AUDIO
    TITLE "0:"
    INDEX 01 00:47:54
  TRACK 54 AUDIO
    TITLE "8:cjc056_1525"
    INDEX 01 00:47:66
  TRACK 55 AUDIO
    TITLE "0:"
    INDEX 01 00:49:47
  TRACK 56 AUDIO
    TITLE "9:cjc056_1526"
    INDEX 01 00:49:59
  TRACK 57 AUDIO
    TITLE "0:"
    INDEX 01 00:51:22
  TRACK 58 AUDIO
    TITLE "7:cjc056_1527"
    INDEX 01 00:51:73
  TRACK 59 AUDIO
    TITLE "0:"
    INDEX 01 00:53:37
  TRACK 60 AUDIO
    TITLE "8:cjc056_1528"
    INDEX 01 00:53:51
  TRACK 61 AUDIO
    TITLE "0:"
    INDEX 01 00:55:03
  TRACK 62 AUDIO
    TITLE "9:cjc056_1529"
    INDEX 01 00:55:16
  TRACK 63 AUDIO
    TITLE "0:"
    INDEX 01 00:58:40
  TRACK 64 AUDIO
    TITLE "7:cjc056_1530"
    INDEX 01 00:59:16
  TRACK 65 AUDIO
    TITLE "0:"
    INDEX 01 01:00:47
  TRACK 66 AUDIO
    TITLE "8:cjc056_1531"
    INDEX 01 01:00:59
  TRACK 67 AUDIO
    TITLE "0:"
    INDEX 01 01:02:12
  TRACK 68 AUDIO
    TITLE "9:cjc056_1532"
    INDEX 01 01:02:26
  TRACK 69 AUDIO
    TITLE "0:"
    INDEX 01 01:04:70
  TRACK 70 AUDIO
    TITLE "8:cjc056_1533"
    INDEX 01 01:05:21
  TRACK 71 AUDIO
    TITLE "0:"
    INDEX 01 01:06:32
  TRACK 72 AUDIO
    TITLE "9:cjc056_1534"
    INDEX 01 01:06:45
  TRACK 73 AUDIO
    TITLE "0:"
    INDEX 01 01:08:11
